<svg width="39" height="36" viewBox="0 0 39 36" fill="none" xmlns="http://www.w3.org/2000/svg">
<path d="M7.25541 27.9761L14.5749 26.0148L15.2287 28.4547L7.90917 30.416L7.25541 27.9761Z" fill="white"/>
<path d="M25.7059 13.8797L1.30751 20.4173L2.61502 25.297L27.0135 18.7594L25.7059 13.8797Z" fill="white"/>
<path d="M1.30751 20.4173L0.653754 17.9774C0.293209 16.6319 1.09427 15.2444 2.43984 14.8838L21.9586 9.65381C23.3042 9.29326 24.6916 10.0943 25.0522 11.4399L25.7059 13.8797M1.30751 20.4173L25.7059 13.8797M1.30751 20.4173L2.61502 25.297M25.7059 13.8797L27.0135 18.7594M27.0135 18.7594L28.9747 26.079C29.3353 27.4245 28.5342 28.812 27.1886 29.1726L7.66988 34.4026C6.3243 34.7631 4.93682 33.9621 4.57628 32.6165L2.61502 25.297M27.0135 18.7594L2.61502 25.297M7.25541 27.9761L14.5749 26.0148L15.2287 28.4547L7.90917 30.416L7.25541 27.9761Z" stroke="white"/>
<path fill-rule="evenodd" clip-rule="evenodd" d="M16.6698 0.653754L36.1886 5.88379C37.5342 6.24433 38.3352 7.63181 37.9747 8.97739L37.3209 11.4172L12.9225 4.87969L13.5762 2.43984C13.9368 1.09427 15.3243 0.293209 16.6698 0.653754ZM10.8806 12.5L16.6698 11.1138L11.615 9.75938L10.8806 12.5ZM25.5752 13.5L28.5 24.7438L30.9585 25.4025C32.3041 25.7631 33.6916 24.962 34.0521 23.6164L36.0134 16.2969L25.5752 13.5Z" fill="white"/>
</svg>
