<svg width="70" height="70" viewBox="0 0 70 70" fill="none" xmlns="http://www.w3.org/2000/svg">
<path d="M0 20C0 8.9543 8.95431 0 20 0H50C61.0457 0 70 8.95431 70 20V50C70 61.0457 61.0457 70 50 70H20C8.9543 70 0 61.0457 0 50V20Z" fill="white" fill-opacity="0.1"/>
<path d="M23.2554 44.9761L30.5749 43.0148L31.2287 45.4547L23.9092 47.416L23.2554 44.9761Z" fill="white"/>
<path d="M41.7059 30.8797L17.3075 37.4173L18.615 42.297L43.0135 35.7594L41.7059 30.8797Z" fill="white"/>
<path d="M17.3075 37.4173L16.6538 34.9774C16.2932 33.6319 17.0943 32.2444 18.4398 31.8838L37.9586 26.6538C39.3042 26.2933 40.6916 27.0943 41.0522 28.4399L41.7059 30.8797M17.3075 37.4173L41.7059 30.8797M17.3075 37.4173L18.615 42.297M41.7059 30.8797L43.0135 35.7594M43.0135 35.7594L44.9747 43.079C45.3353 44.4245 44.5342 45.812 43.1886 46.1726L23.6699 51.4026C22.3243 51.7631 20.9368 50.9621 20.5763 49.6165L18.615 42.297M43.0135 35.7594L18.615 42.297M23.2554 44.9761L30.5749 43.0148L31.2287 45.4547L23.9092 47.416L23.2554 44.9761Z" stroke="white"/>
<path fill-rule="evenodd" clip-rule="evenodd" d="M32.6698 17.6538L52.1886 22.8838C53.5342 23.2443 54.3352 24.6318 53.9747 25.9774L53.3209 28.4172L28.9225 21.8797L29.5762 19.4398C29.9368 18.0943 31.3243 17.2932 32.6698 17.6538ZM26.8806 29.5L32.6698 28.1138L27.615 26.7594L26.8806 29.5ZM41.5752 30.5L44.5 41.7438L46.9585 42.4025C48.3041 42.7631 49.6916 41.962 50.0521 40.6164L52.0134 33.2969L41.5752 30.5Z" fill="white"/>
</svg>
