<svg width="74" height="49" viewBox="0 0 74 49" fill="none" xmlns="http://www.w3.org/2000/svg">
<g clip-path="url(#clip0_1_14)">
<path d="M45.3548 17.4355V12.1817C41.0314 12.4908 31.7668 12.7998 29.2962 11.5636C29.8109 15.6842 30.7168 25.5942 30.2227 32.2696M27.1344 33.1967C26.208 26.3978 23.7992 12.1199 21.5757 9.40034C25.8992 9.50336 35.2873 9.02949 38.252 6.3099V10.9456M28.3697 7.23704C28.0609 5.89785 27.258 2.84861 26.5168 1.3652C24.458 3.63152 18.611 8.22598 11.6934 8.47321C15.2963 13.5209 22.811 25.7179 24.0462 34.1238M21.5757 34.7419C18.4875 28.9731 10.0876 16.1375 1.19355 10.9456C4.48763 9.60637 11.7552 5.5682 14.4728 0.129028C15.3993 1.3652 17.3757 4.20841 17.8698 5.69182" stroke="#2FA8DF" stroke-width="1.19355" stroke-linecap="round" stroke-linejoin="round"/>
<path fill-rule="evenodd" clip-rule="evenodd" d="M14.4593 34.2068C13.4951 35.8122 13.1477 37.5367 13.7833 39.0199C14.4651 40.6106 16.0441 42.0348 18.57 42.9318C21.0906 43.827 24.4678 44.1584 28.5134 43.6003C31.6842 43.163 35.6878 41.7161 39.4168 40.034C42.7388 38.5354 45.7441 36.8957 47.6053 35.7345L45.6992 30.3728C42.8512 32.1505 37.0134 35.6765 33.0166 37.6749C30.1834 39.0916 26.3464 39.8459 23.0742 39.884C21.4339 39.9031 19.852 39.7438 18.5591 39.3496C17.331 38.9752 16.0228 38.2805 15.499 36.971C14.8452 35.3366 15.2092 33.8388 15.8486 32.7206C16.0031 32.4504 16.1756 32.1979 16.3581 31.9642C15.6942 32.5253 15.0074 33.2945 14.4593 34.2068Z" fill="#2FA8DF"/>
<path d="M37.3818 19.3149L37.392 19.3136C37.3921 19.3136 37.3921 19.3136 37.3922 19.3136C37.5076 19.2996 37.6294 19.2925 37.7576 19.2925C37.8594 19.2925 37.9575 19.297 38.052 19.3061C38.4299 19.3425 38.7502 19.4508 39.018 19.6266C39.3431 19.8399 39.5245 20.1332 39.5702 20.5191L39.5889 20.6771H39.748H40.7865H40.9714L40.9654 20.4923C40.9499 20.0095 40.7995 19.5746 40.5149 19.1928C40.2352 18.8139 39.8582 18.5189 39.3898 18.3059C39.0428 18.146 38.6617 18.0461 38.2482 18.0047V17.1749V16.9959H38.0691H37.3595H37.1805V17.1749V18.0241C36.8263 18.0741 36.4934 18.1691 36.1825 18.3098C35.7009 18.5263 35.312 18.8336 35.021 19.233L35.0209 19.2332C34.7284 19.6357 34.5843 20.106 34.5843 20.6365C34.5843 21.2788 34.8037 21.8117 35.2483 22.2182C35.545 22.4895 35.9111 22.7141 36.3429 22.8944C36.5366 22.9752 36.7436 23.0472 36.9639 23.1105L36.9642 23.1106L37.3103 23.2095L37.4174 23.2401L37.4922 23.1576C37.8428 22.7708 38.3026 22.5325 38.4789 22.4654L38.9957 22.2689L38.4618 22.1252L38.1157 22.032L37.5618 21.8829L37.5609 21.8826C37.5122 21.8698 37.4619 21.8558 37.41 21.8405C37.2931 21.8061 37.1681 21.7655 37.0351 21.7186C36.8508 21.6507 36.6746 21.5653 36.5063 21.4623C36.3482 21.3627 36.2197 21.2401 36.119 21.0945C36.0294 20.9583 35.9808 20.791 35.9808 20.5846C35.9808 20.3388 36.0502 20.1237 36.1885 19.9333C36.3315 19.7403 36.5324 19.5842 36.799 19.4681C36.9717 19.3936 37.1656 19.3421 37.3818 19.3149ZM35.9849 27.1567C36.3406 27.3136 36.7398 27.4121 37.1805 27.4547V28.252V28.4311H37.3595H38.0691H38.2482V28.252V27.4537C38.3402 27.4448 38.4303 27.4334 38.5184 27.4196L39.1526 27.3204L38.5587 27.0771C37.9355 26.8217 37.5161 26.3751 37.3926 26.1973L37.348 26.1331L37.2706 26.1222C37.0991 26.098 36.9348 26.0592 36.7776 26.0059C36.5006 25.9081 36.2759 25.7623 36.0988 25.5701C35.9326 25.3839 35.8331 25.1455 35.8071 24.8443L35.793 24.6806H35.6287H34.521H34.3287L34.3424 24.8724C34.3792 25.3873 34.5379 25.8451 34.8212 26.2404L34.8217 26.2412C35.1077 26.636 35.4975 26.9404 35.9845 27.1565L35.9849 27.1567Z" fill="#2FA8DF" stroke="#2FA8DF" stroke-width="0.358065"/>
<path d="M68.2652 12.6343L39.9968 23.564C38.0676 24.3409 38.0788 25.4199 39.6429 25.9011L46.9005 28.1711L63.6925 17.5484C64.4865 17.064 65.212 17.3246 64.6157 17.8554L51.0108 30.1662H51.0076L51.0108 30.1678L50.5102 37.6684C51.2436 37.6684 51.5673 37.3311 51.9786 36.933L55.5038 33.4961L62.8364 38.9265C64.1884 39.673 65.1594 39.2894 65.4958 37.6716L70.3092 14.9267C70.8019 12.9461 69.5551 12.0492 68.2652 12.6343Z" fill="#2FA8DF"/>
</g>
<defs>
<clipPath id="clip0_1_14">
<rect width="74" height="48" fill="white" transform="translate(0 0.129028)"/>
</clipPath>
</defs>
</svg>
